Coordinates
version=1
nRows=26
nColumns=24
inDegrees=yes

Units are S.I. units (second, meters, Newtons, ...)
Angles are in degrees.

endheader
time	pelvis_tilt	pelvis_list	pelvis_rotation	pelvis_tx	pelvis_ty	pelvis_tz	hip_flexion_r	hip_adduction_r	hip_rotation_r	knee_angle_r	ankle_angle_r	subtalar_angle_r	mtp_angle_r	hip_flexion_l	hip_adduction_l	hip_rotation_l	knee_angle_l	ankle_angle_l	subtalar_angle_l	mtp_angle_l	lumbar_extension	lumbar_bending	lumbar_rotation
      4.37000000	     24.04870417	      4.68492388	     -3.60040545	      0.95636961	      0.96263863	      0.01656519	    -34.85613764	     -7.38336221	     -6.27471008	    -36.62714139	    -11.79738489	     -5.87920941	     58.99112646	    -10.09785050	      8.69538816	    -11.56450863	     -8.34190951	     -1.58645974	      7.74151959	     20.32257136	    -31.17001829	    -10.24666018	     -1.89468095
      4.37500000	     24.00822506	      4.91030818	     -3.78876228	      0.96250872	      0.96334798	      0.01605896	    -34.00339591	     -7.88567165	     -6.27684451	    -38.14104041	    -13.36656295	     -6.41787501	     59.16130245	    -10.49691223	      9.04113097	    -11.37661733	     -8.24706072	     -1.20527337	      7.68179704	     20.15733208	    -31.07815453	    -10.56730016	     -1.84064437
      4.38000000	     23.98857592	      5.10473766	     -3.99386846	      0.96858200	      0.96410690	      0.01556857	    -33.16686123	     -8.37652208	     -6.25894583	    -39.59714840	    -14.77212897	     -6.80373221	     59.19829274	    -10.94310126	      9.36052596	    -11.25385969	     -8.09145996	     -0.89989610	      7.71084222	     20.03505392	    -31.00828280	    -10.86075115	     -1.72067527
      4.38500000	     23.96589042	      5.24024527	     -4.16040243	      0.97457142	      0.96488833	      0.01507301	    -32.34820400	     -8.76138553	     -6.16911820	    -40.94541865	    -16.03841400	     -7.33470065	     59.25426722	    -11.39642257	      9.61312289	    -11.09669755	     -7.92719510	     -0.48649258	      7.68473122	     19.74068871	    -30.95079451	    -11.07696445	     -1.65125306
      4.39000000	     23.97193022	      5.37638604	     -4.37401954	      0.98057416	      0.96570747	      0.01463068	    -31.56369550	     -9.18533823	     -6.06856143	    -42.23255010	    -17.02310508	     -7.51091070	     59.16875336	    -11.92635096	      9.88098342	    -11.05434985	     -7.65220836	     -0.23213796	      7.81077855	     19.68265654	    -30.90929200	    -11.31131080	     -1.53191086
      4.39500000	     23.93801978	      5.44107806	     -4.57968609	      0.98641375	      0.96649511	      0.01422004	    -30.71628571	     -9.50842680	     -5.88800313	    -43.49224401	    -17.67074966	     -7.93142762	     58.94610872	    -12.39966274	     10.06846470	    -11.01857524	     -7.39970977	      0.07281067	      7.91256953	     19.52579293	    -30.83915030	    -11.47010552	     -1.33946771
      4.40000000	     23.93605743	      5.46658323	     -4.77969000	      0.99222688	      0.96734767	      0.01383121	    -29.93106264	     -9.78018044	     -5.68748781	    -44.64292595	    -18.08965126	     -8.17876791	     58.61635184	    -12.93252010	     10.21745447	    -11.06681441	     -7.10084904	      0.36102423	      8.09997575	     19.35443400	    -30.80822214	    -11.58578116	     -1.16070403
      4.40500000	     23.93735567	      5.46992507	     -4.95268224	      0.99797909	      0.96823527	      0.01342273	    -29.17308275	    -10.01157162	     -5.50564566	    -45.69691428	    -18.33000124	     -8.28551402	     58.38355471	    -13.47817970	     10.33972107	    -11.11317398	     -6.77690779	      0.57377553	      8.30141715	     19.27610257	    -30.78960440	    -11.66508878	     -1.01117860
      4.41000000	     23.98632766	      5.38347964	     -5.15295922	      1.00364841	      0.96918216	      0.01315722	    -28.46688996	    -10.13419478	     -5.22904032	    -46.71363759	    -17.97507451	     -8.15476688	     55.96041648	    -14.05007703	     10.35662777	    -11.41135987	     -6.53621612	      1.07573583	      8.98479596	     18.31021950	    -30.82487540	    -11.67369232	     -0.77062255
      4.41500000	     23.94376532	      5.29506120	     -5.31705027	      1.00919342	      0.97004239	      0.01277072	    -27.66426749	    -10.23562039	     -4.96809380	    -47.64937057	    -17.60266135	     -8.20872462	     55.86567826	    -14.56472324	     10.38878435	    -11.50664426	     -6.15861744	      1.20330695	      9.09128541	     18.28445288	    -30.78075907	    -11.65076531	     -0.55866497
      4.42000000	     23.90189625	      5.18391065	     -5.53058502	      1.01471853	      0.97087467	      0.01248778	    -26.85027978	    -10.33549208	     -4.68298902	    -48.54258251	    -17.02869084	     -8.15177240	     55.44219061	    -15.06029870	     10.39995563	    -11.82439959	     -5.82771533	      1.47942262	      9.50578176	     18.23627668	    -30.73007587	    -11.62803014	     -0.27601603
      4.42500000	     23.91787734	      4.99680704	     -5.67021362	      1.02006689	      0.97180369	      0.01217440	    -26.01924493	    -10.32223909	     -4.47219854	    -49.49347475	    -16.18267696	     -7.98344929	     53.20299144	    -15.58032046	     10.29965440	    -12.20746753	     -5.59583748	      1.84842031	     10.24177145	     17.83458605	    -30.77463011	    -11.49956640	     -0.03827504
      4.43000000	     23.76573728	      4.87949946	     -5.87613703	      1.02523523	      0.97246551	      0.01174092	    -24.73031978	    -10.46844264	     -4.31143162	    -50.71675615	    -15.82096008	     -8.20161006	     53.03489099	    -15.95545593	     10.32191906	    -12.43529544	     -5.19283663	      1.91979210	     10.38902785	     17.80486400	    -30.64881884	    -11.43945654	      0.24147286
      4.43500000	     23.57214323	      4.74977531	     -6.10455601	      1.03020583	      0.97300576	      0.01130220	    -23.19983277	    -10.63239190	     -4.18735979	    -52.11117999	    -15.58205499	     -8.55637236	     52.76243804	    -16.22456487	     10.32624796	    -12.71191524	     -4.89870483	      2.09350148	     10.64047170	     17.77326836	    -30.49526817	    -11.36750008	      0.56671619
      4.44000000	     23.34601724	      4.62435938	     -6.37179154	      1.03512720	      0.97343634	      0.01089085	    -21.54301756	    -10.81287220	     -4.05270124	    -53.53696001	    -15.39964608	     -8.99902291	     52.43348282	    -16.42998540	     10.34224902	    -13.00051951	     -4.64749216	      2.28712768	     10.86768284	     17.73196257	    -30.30385516	    -11.30798223	      0.92224820
      4.44500000	     23.10412462	      4.50035037	     -6.65637643	      1.04008350	      0.97379855	      0.01050780	    -19.91556157	    -10.96841989	     -3.88719590	    -54.82863645	    -15.09672748	     -9.43753455	     52.07285983	    -16.61009089	     10.36296951	    -13.23940338	     -4.41969168	      2.50323370	     11.02281906	     17.64874793	    -30.08994614	    -11.25091324	      1.30191227
      4.45000000	     22.90294846	      4.35127566	     -6.95445093	      1.04515550	      0.97418572	      0.01018947	    -18.49922425	    -11.06226581	     -3.69381405	    -55.84621543	    -14.48323426	     -9.75536970	     51.68233758	    -16.84818356	     10.36453795	    -13.45625283	     -4.18558338	      2.72656077	     11.15266733	     17.54451442	    -29.90491107	    -11.17765619	      1.69617985
      4.45500000	     22.77616052	      4.14773337	     -7.20774601	      1.05035686	      0.97468908	      0.00991508	    -17.38406428	    -11.02534313	     -3.48470150	    -56.58189028	    -13.19404935	     -9.44505293	     48.76162304	    -17.17568490	     10.29422513	    -13.65935057	     -3.99705461	      3.12004928	     11.46467399	     16.54024571	    -29.79343128	    -11.03820232	      2.05989170
      4.46000000	     22.65465527	      3.94464160	     -7.45241806	      1.05560761	      0.97519278	      0.00963775	    -16.40027441	    -10.96188406	     -3.29902976	    -57.07459091	    -12.05413323	     -9.60539749	     48.70102728	    -17.52402256	     10.23367906	    -13.79499284	     -3.77078404	      3.35558846	     11.50113404	     16.51340689	    -29.68790860	    -10.89336203	      2.41586395
      4.46500000	     22.51286081	      3.73842075	     -7.68205946	      1.06081567	      0.97562178	      0.00937723	    -15.38811446	    -10.87324540	     -3.14113008	    -57.55422420	    -10.63727604	     -9.33185837	     46.64565473	    -17.83106027	     10.15565396	    -13.96370823	     -3.59479078	      3.70136498	     11.70710126	     15.95951946	    -29.56494063	    -10.73743917	      2.75148475
      4.47000000	     22.33165130	      3.55569224	     -7.93232705	      1.06590877	      0.97594971	      0.00914728	    -14.30627255	    -10.79162345	     -2.97950913	    -57.98361143	     -9.48683918	     -9.54005324	     46.56440592	    -18.09777056	     10.11253980	    -14.10928701	     -3.37761717	      3.93628205	     11.72805285	     15.93302844	    -29.41554658	    -10.60935792	      3.10102260
      4.47500000	     22.09668584	      3.39573322	     -8.17068765	      1.07089099	      0.97615601	      0.00894362	    -13.15362104	    -10.69849036	     -2.82379455	    -58.38698421	     -8.27774698	     -9.63428883	     46.26850204	    -18.28817810	     10.07889977	    -14.29924122	     -3.17852445	      4.18620191	     11.83000220	     15.87830302	    -29.21706363	    -10.49559461	      3.42849943
      4.48000000	     21.84046236	      3.25353918	     -8.34820196	      1.07579558	      0.97630593	      0.00871665	    -11.99275849	    -10.58657906	     -2.74881898	    -58.77682454	     -6.65541288	     -9.13562403	     42.79865758	    -18.47437035	     10.04488963	    -14.46706399	     -2.93176991	      4.45457635	     12.00940427	     15.18399483	    -29.01620703	    -10.37569712	      3.67257920
      4.48500000	     21.49652790	      3.15882323	     -8.50448449	      1.08054106	      0.97627975	      0.00850324	    -10.72482598	    -10.48002943	     -2.68464446	    -59.11333498	     -5.30299576	     -9.09107666	     41.82251602	    -18.52581853	     10.03478000	    -14.64256065	     -2.73978648	      4.72733830	     12.17213348	     15.04262325	    -28.73904733	    -10.28748364	      3.87741882
      4.49000000	     21.17053197	      3.05473911	     -8.70932342	      1.08518455	      0.97622949	      0.00842225	     -9.46892810	    -10.33480488	     -2.54508989	    -59.41373289	     -3.80819205	     -8.82896787	     39.48218905	    -18.63441224	     10.04286575	    -14.92020468	     -2.43115334	      4.85171367	     12.31200299	     14.86057885	    -28.48542887	    -10.21971790	      4.13453416
      4.49500000	     20.79371099	      2.98716283	     -8.89542036	      1.08976352	      0.97604145	      0.00834588	     -8.16954493	    -10.18983194	     -2.41211395	    -59.64440049	     -2.55516414	     -8.91122204	     39.29365465	    -18.67794604	     10.07516719	    -15.15850056	     -2.13060140	      5.01343394	     12.42557661	     14.85570616	    -28.18278153	    -10.17513137	      4.34592788
